<svg id="Capa_1" enable-background="new 0 0 512 512" height="512" viewBox="0 0 512 512" width="512" xmlns="http://www.w3.org/2000/svg"><g><path d="m256 148.71 16.5 72.29-16.5 35.68-15.94 79.61-5.98 29.9-15.68 78.31c-.46 2.31-1.46 4.47-2.91 6.32l-43.48 55.44c-2.88 3.66-7.25 5.74-11.8 5.74-.98 0-1.97-.1-2.95-.29-5.55-1.11-10-5.25-11.51-10.71l-18.79-67.9c-.63-2.27-.72-4.65-.25-6.96l13.31-66.24 5.93-29.51 30.48-151.68 3.61-17.95c1.41-7.01 7.56-12.05 14.71-12.05z" fill="#b3ccff"/><path d="m385.04 433.1-18.79 67.9c-1.51 5.46-5.96 9.6-11.51 10.71-.98.19-1.97.29-2.95.29-4.55 0-8.92-2.08-11.8-5.74l-43.48-55.44c-1.45-1.85-2.45-4.01-2.91-6.32l-15.68-78.31-5.98-29.9-15.94-79.61v-107.97h61.25c7.15 0 13.3 5.04 14.71 12.05l3.61 17.95 30.48 151.68 5.93 29.51 13.31 66.24c.47 2.31.38 4.69-.25 6.96z" fill="#8fb2ef"/><g><path d="m207.64 48.36v47.93c0 8.28 6.72 15 15 15h33.36l16.5-64.79-16.5-46.5c-26.66 0-48.36 21.69-48.36 48.36z" fill="#4d578c"/></g><g><path d="m256 0v111.29h33.36c8.28 0 15-6.72 15-15v-47.93c0-26.67-21.7-48.36-48.36-48.36z" fill="#333e73"/></g><g><path d="m201.52 81.29c-13.86 0-25.09 11.23-25.09 25.08v72.34h79.57l16.5-48.71-16.5-48.71z" fill="#fd6c5f"/></g><g><path d="m310.48 81.29h-54.48v97.42h79.57v-72.34c0-13.85-11.23-25.08-25.09-25.08z" fill="#fd465f"/></g><g><path d="m240.06 336.29c-33.15-.49-65.15-2.51-94.11-5.9-17.92-2.1-34.69-4.72-49.86-7.82-51.57-10.56-63.5-22.1-65.74-24.98 3.29-4.56 21.48-16.7 74.07-26.48 8.14-1.52 13.51-9.35 12-17.5-1.52-8.14-9.35-13.52-17.5-12-66.56 12.39-98.92 30.72-98.92 56.04 0 23.07 26.93 40.3 82.32 52.65 17.33 3.87 36.76 7.09 57.7 9.6 28.98 3.49 60.85 5.64 94.06 6.29 7.25.15 14.56.22 21.92.22l10.664-12.41-10.664-17.59c-5.34 0-10.65-.04-15.94-.12z" fill="#e6f7ff"/></g><g><path d="m413.08 241.61c-8.15-1.51-15.98 3.86-17.5 12-1.51 8.15 3.86 15.98 12 17.5 52.59 9.78 70.78 21.92 74.07 26.48-2.24 2.88-14.17 14.42-65.74 24.98-15.17 3.1-31.94 5.72-49.86 7.82-28.96 3.39-60.96 5.41-94.11 5.9-5.29.08-10.6.12-15.94.12v30c7.36 0 14.67-.07 21.92-.22 33.21-.65 65.08-2.8 94.06-6.29 20.94-2.51 40.37-5.73 57.7-9.6 55.39-12.35 82.32-29.58 82.32-52.65 0-25.32-32.36-43.65-98.92-56.04z" fill="#cce6ff"/></g></g></svg>