<svg xmlns="http://www.w3.org/2000/svg" xmlns:xlink="http://www.w3.org/1999/xlink" viewBox="0 0 51.78 49.38"><defs><style>.cls-1{fill:url(#linear-gradient);}.cls-2{fill:url(#linear-gradient-2);}.cls-3{fill:url(#linear-gradient-3);}</style><linearGradient id="linear-gradient" x1="63.13" y1="55.4" x2="-2.23" y2="12.85" gradientUnits="userSpaceOnUse"><stop offset="0" stop-color="#1d1d1b"/><stop offset="0.29" stop-color="#fff"/><stop offset="0.38" stop-color="#d7d7d7"/><stop offset="0.59" stop-color="#7c7c7c"/><stop offset="0.75" stop-color="#393939"/><stop offset="0.88" stop-color="#101010"/><stop offset="0.94"/></linearGradient><linearGradient id="linear-gradient-2" x1="6.22" y1="10.43" x2="48.1" y2="49.41" gradientUnits="userSpaceOnUse"><stop offset="0" stop-color="#fff"/><stop offset="1"/></linearGradient><linearGradient id="linear-gradient-3" x1="8.44" y1="8.05" x2="50.31" y2="47.03" xlink:href="#linear-gradient-2"/></defs><title>Asset 2logo</title><g id="Layer_2" data-name="Layer 2"><g id="Layer_3" data-name="Layer 3"><path class="cls-1" d="M42.28,9.63C41.19,8.56,38,7.6,37.5,7.4l-.34-.12a2.61,2.61,0,0,0-1.88,0C34.4,7.58,26.05,9.9,25.8,10h0c-1.69.34-7.47,1.25-7.47,1.25l-.53.09,0-.08.61-.1c.64-.88,10.3-7.4,10.45-7.59a.87.87,0,0,0-.22-1.27c-.06,0-.15-.08-.82-.39C26.3,1.18,24,.16,24,.16c-1.34-.54-1,.47-1,.47C23.7,3,17.39,10.54,16.7,11.35l-.14.06-.33.16a6.9,6.9,0,0,1-.84.25,14.94,14.94,0,0,1-1.5-.05s-.93-.25-1.23-.29-2.51-.18-2.51-.18a.9.9,0,0,0-.56.21l-.18.16s-.16.17-.06.25,1.16,1.3,1.16,1.3a2.87,2.87,0,0,1,.69,1.06c.23.63,4.39,11.34,4.39,11.34l.39.84c.12.2.61.87.61.87s.62.86.95,0A9.85,9.85,0,0,0,18,26a.57.57,0,0,1,.51-.44l3.18-.39-.12.41s-2.68,9-15.21,16.85A55.57,55.57,0,0,1,1,45.74c-1.86.88-.92,1.21.41.66s16.34-4.22,22.08-19.58l.77-2.5a3,3,0,0,0,.76,0l3.08-.53a7.43,7.43,0,0,1,1-.16,17.2,17.2,0,0,1,2.71,0,.93.93,0,0,1,.44.3l.9.9a.9.9,0,0,0,1.6-.23l1.23-2c.42-.69,1.06-1.94,1.06-1.94l3.16-6.74a6.81,6.81,0,0,1,2.1-2.77C42.93,10.73,43.39,10.73,42.28,9.63Zm-20.93,14c-.48.11-3.31.94-3.31.94s-.43.16-.54-.16S15.4,14.1,15.36,13.9h0a7.94,7.94,0,0,0-.17-.79c-.07-.27.13-.31.13-.31l8.33-1.15.12,0A31.16,31.16,0,0,1,24.06,16c0,.51,0,.61-.36.63s-4.2.7-4.41.78a2.88,2.88,0,0,0-.59.33l-.29.19c-.18.1-.07.3,0,.43a.46.46,0,0,0,.24.17l.64.18c.09,0,4.57-.29,4.57-.29-.54.5-1.79,5.34-1.79,5.34A1,1,0,0,0,21.35,23.61ZM33,22.3a.47.47,0,0,1-.65.37l-.24-.15a2,2,0,0,0-.78-.09l-6.45.62-.24.15L26,17.68c.53.26,6.36-1.26,6.36-1.26a.28.28,0,0,0,.2-.33,1.93,1.93,0,0,0-.13-.49c-.24-.53-5.89,0-5.89,0a12.85,12.85,0,0,0-.18-3.85,6.21,6.21,0,0,0-.33-.62h0l9.42-1.08.08.06.5.34a.88.88,0,0,1,.24.47C36.29,14.65,33.12,21.83,33,22.3Z"/><path class="cls-2" d="M25.35,25.1s.15,3.45-.89,14.26c0,0-1.4,7.24,5.65,9C36.85,50,44.9,49.77,50.86,47.06a1.49,1.49,0,0,0,.87-1.29,49.18,49.18,0,0,0-.55-9.8s-.36-2.88-.93.38a11.51,11.51,0,0,1-2.42,6,8.86,8.86,0,0,1-6,3.13c-7,.83-10.45-.24-11.21-.53l-.31-.08s-4.33-1.06-4-7l.2-2.64a57.48,57.48,0,0,1,1.58-7.37,1.24,1.24,0,0,0-.22-1.17A6.48,6.48,0,0,0,25.35,25.1Z"/><path class="cls-3" d="M45.05,37.19c.26.34-2.24,1.24-2.24,1.24a.56.56,0,0,1-.67-.3L42.07,38c-.09-.2-.22-.39-.33-.59l-.06-.11-.48-1c-.12-.26-.31-.68-.4-.95-.31-.86-.95-.55-.95-.55a11.05,11.05,0,0,0-1.37.53c-.42.18-.88.4-1.37.64-2.32,1.11-5.17,2.63-5.48,2.8l-.05,0a2.34,2.34,0,0,1-1.1.48.52.52,0,0,1-.4-.12,4.5,4.5,0,0,1-1.29-2.88.55.55,0,0,1,.33-.57c2.56-1.09,5.33-5.92,6.4-7.93a5.12,5.12,0,0,0,.55-1.71,9.85,9.85,0,0,1,.29-1.39.58.58,0,0,1,.81-.34c1.86,1,2.41,1.74,2.55,2.19a.57.57,0,0,1-.19.61l-.75.59a18.18,18.18,0,0,0-2,1.87l-4.37,5.26-.07.07c-1.82,1.52,1.22.59,1.22.59l2.29-.63h0L38,34.3l1.65-.45a.45.45,0,0,0,.27-.55s-.37-.87-.79-1.77c-.73-1.54-.11-.87-.11-.87l.11.06C40.9,31.7,44,35.74,45.05,37.19Z"/></g></g></svg>