<svg xmlns="http://www.w3.org/2000/svg" xmlns:xlink="http://www.w3.org/1999/xlink" viewBox="0 0 133.16 36.59"><defs><style>.cls-1{opacity:0.7;}.cls-2{fill:url(#linear-gradient);}.cls-3{fill:url(#linear-gradient-2);}.cls-4{fill:url(#linear-gradient-3);}.cls-5{font-size:12px;fill:#fff;font-family:CasanovaScotia, Casanova Scotia;letter-spacing:0.08em;}</style><linearGradient id="linear-gradient" x1="92.83" y1="41.05" x2="44.41" y2="9.52" gradientUnits="userSpaceOnUse"><stop offset="0" stop-color="#1d1d1b"/><stop offset="0.29" stop-color="#fff"/><stop offset="0.38" stop-color="#d7d7d7"/><stop offset="0.59" stop-color="#7c7c7c"/><stop offset="0.75" stop-color="#393939"/><stop offset="0.88" stop-color="#101010"/><stop offset="0.94"/></linearGradient><linearGradient id="linear-gradient-2" x1="50.67" y1="7.73" x2="81.69" y2="36.6" gradientUnits="userSpaceOnUse"><stop offset="0" stop-color="#fff"/><stop offset="1"/></linearGradient><linearGradient id="linear-gradient-3" x1="52.31" y1="5.96" x2="83.33" y2="34.84" xlink:href="#linear-gradient-2"/></defs><title>Asset 3name</title><g id="Layer_2" data-name="Layer 2"><g id="background"><g id="Layer_3" data-name="Layer 3"><g class="cls-1"><path class="cls-2" d="M77.38,7.14c-.8-.8-3.17-1.51-3.54-1.66l-.25-.09a2,2,0,0,0-1.4,0c-.65.21-6.83,1.93-7,2h0c-1.26.25-5.54.92-5.54.92l-.39.07,0-.06.46-.08c.47-.64,7.62-5.47,7.74-5.62a.63.63,0,0,0-.16-.93,5.69,5.69,0,0,0-.61-.3C65.54.88,63.84.12,63.84.12c-1-.4-.76.35-.76.35.53,1.79-4.14,7.34-4.65,7.94l-.11,0-.24.12a4.4,4.4,0,0,1-.62.18,8.83,8.83,0,0,1-1.11,0s-.69-.19-.92-.22l-1.85-.13a.71.71,0,0,0-.42.15L53,8.65s-.12.12-.05.18.87,1,.87,1a2.23,2.23,0,0,1,.5.79c.17.46,3.26,8.4,3.26,8.4s.24.54.29.62.45.65.45.65.46.64.7,0a8.57,8.57,0,0,0,.33-1,.43.43,0,0,1,.38-.33l2.35-.29L62,19s-2,6.69-11.28,12.48a39.39,39.39,0,0,1-3.92,2.43c-1.38.66-.68.9.31.49s12.09-3.12,16.35-14.5L64.06,18a2.32,2.32,0,0,0,.57,0l2.28-.39a5.82,5.82,0,0,1,.75-.12,13.24,13.24,0,0,1,2,0,.78.78,0,0,1,.33.23s.11.12.66.66a.67.67,0,0,0,1.19-.16l.91-1.5c.31-.51.78-1.43.78-1.43l2.34-5a5.12,5.12,0,0,1,1.56-2.05C77.86,8,78.2,8,77.38,7.14ZM61.87,17.49l-2.45.7s-.31.12-.4-.12-1.55-7.62-1.58-7.77h0a3.4,3.4,0,0,0-.12-.58c-.05-.2.1-.23.1-.23l6.17-.86.08,0a22.15,22.15,0,0,1,.22,3.22c0,.38,0,.45-.27.47s-3.11.51-3.26.57a2.37,2.37,0,0,0-.44.25l-.21.14c-.14.07-.06.22,0,.31a.34.34,0,0,0,.18.13l.47.13c.07,0,3.39-.21,3.39-.21-.4.37-1.33,3.95-1.33,3.95A.72.72,0,0,0,61.87,17.49Zm8.64-1a.35.35,0,0,1-.48.27l-.19-.1a1.27,1.27,0,0,0-.57-.07l-4.78.46-.18.1,1-4.08c.4.19,4.71-.94,4.71-.94a.21.21,0,0,0,.16-.24,2,2,0,0,0-.1-.36c-.18-.39-4.36,0-4.36,0a9.67,9.67,0,0,0-.14-2.86,3.88,3.88,0,0,0-.24-.45h0l7-.79.06,0,.37.25a.63.63,0,0,1,.17.35C72.94,10.85,70.6,16.17,70.51,16.52Z"/><path class="cls-3" d="M64.84,18.6a93.79,93.79,0,0,1-.66,10.56s-1,5.37,4.19,6.65c5,1.23,10.95,1.06,15.37-1a1.11,1.11,0,0,0,.64-1A37,37,0,0,0,84,26.64s-.26-2.13-.69.29a8.51,8.51,0,0,1-1.79,4.48A6.52,6.52,0,0,1,77,33.73c-5.16.62-7.74-.18-8.3-.39a.86.86,0,0,0-.23-.06s-3.21-.79-2.94-5.2l.15-1.95a43.67,43.67,0,0,1,1.17-5.46.89.89,0,0,0-.17-.87A4.58,4.58,0,0,0,64.84,18.6Z"/><path class="cls-4" d="M79.44,27.55c.18.25-1.67.92-1.67.92a.41.41,0,0,1-.49-.22l0-.1L77,27.71a.56.56,0,0,0,0-.08l-.35-.75c-.09-.19-.23-.5-.3-.7-.23-.64-.7-.41-.7-.41a7.76,7.76,0,0,0-1,.4c-.3.13-.65.29-1,.47-1.72.83-3.83,1.95-4.06,2.07l0,0a1.91,1.91,0,0,1-.81.36.41.41,0,0,1-.3-.1,3.3,3.3,0,0,1-1-2.13.41.41,0,0,1,.24-.42c1.9-.81,4-4.39,4.74-5.88a3.73,3.73,0,0,0,.41-1.26,6.09,6.09,0,0,1,.22-1,.42.42,0,0,1,.59-.25c1.38.72,1.79,1.28,1.89,1.62a.4.4,0,0,1-.14.45l-.56.44a14.78,14.78,0,0,0-1.46,1.38l-3.24,3.9,0,.05c-1.35,1.12.9.44.9.44l1.7-.47h0l1.55-.43,1.22-.33a.35.35,0,0,0,.21-.41s-.28-.64-.6-1.31c-.53-1.14-.07-.64-.07-.64l.07,0C76.36,23.49,78.64,26.48,79.44,27.55Z"/></g><text class="cls-5" transform="translate(0.98 25.67)">ABHISHEK REDDY</text></g></g></g></svg>