<svg id="Capa_1" enable-background="new 0 0 512 512" height="512" viewBox="0 0 512 512" width="512" xmlns="http://www.w3.org/2000/svg"><g><g><path d="m256 60.667 7.5 47.397-7.5 47.396c-8.28 0-15-6.72-15-15v-64.793c0-8.28 6.72-15 15-15z" fill="#4d578c"/></g><g><path d="m271 75.667v64.793c0 8.28-6.72 15-15 15v-94.793c8.28 0 15 6.72 15 15z" fill="#333e73"/></g><g><path d="m241 15v60c0 8.28 6.72 15 15 15l7.5-45-7.5-45c-8.28 0-15 6.72-15 15z" fill="#fd6c5f"/></g><g><path d="m356 0h-100v90h100c8.28 0 15-6.72 15-15v-60c0-8.28-6.72-15-15-15z" fill="#fd465f"/></g><path d="m161.034 219.544c-3.909-2.819-8.936-3.589-13.51-2.066l-130.417 43.392c-10.232 3.404-17.107 12.938-17.107 23.722v202.408c0 13.785 11.215 25 25 25h127.26c8.284 0 15-6.716 15-15v-265.29c0-4.82-2.317-9.347-6.226-12.166z" fill="#b3ccff"/><path d="m494.889 260.87-130.485-43.394c-4.571-1.522-9.6-.751-13.508 2.067-3.909 2.82-6.226 7.347-6.226 12.166v265.291c0 8.284 6.716 15 15 15h127.33c13.785 0 25-11.215 25-25v-202.407c0-10.785-6.876-20.319-17.111-23.723z" fill="#8fb2ef"/><g><path d="m248.38 127.52-7.38 4.32-91.37 53.5c-7.63 4.47-12.37 12.73-12.37 21.57v290.09c0 8.28 6.72 15 15 15h51l52.74-37.5 15-148.5-15-200.54c-2.63 0-5.27.68-7.62 2.06z" fill="#e6f7ff"/></g><g><path d="m362.3 185.34-91.3-53.45-7.46-4.37c-2.33-1.36-4.93-2.05-7.54-2.06v349.04l52.74 37.5h50.93c8.28 0 15-6.72 15-15v-290.09c0-8.84-4.74-17.11-12.37-21.57z" fill="#cce6ff"/></g><path d="m256 214.21 10.403 50.335-10.403 50.335c-27.75 0-50.33-22.58-50.33-50.34 0-27.75 22.58-50.33 50.33-50.33z" fill="#b3ccff"/><path d="m306.33 264.54c0 27.76-22.58 50.34-50.33 50.34v-100.67c27.75 0 50.33 22.58 50.33 50.33z" fill="#8fb2ef"/><path d="m256 355 15 73.5-15 83.5h-52.74v-104.26c0-29.08 23.66-52.74 52.74-52.74z" fill="#b3ccff"/><path d="m308.74 407.74v104.26h-52.74v-157c29.08 0 52.74 23.66 52.74 52.74z" fill="#8fb2ef"/><g><g><path d="m83.63 358.59c-8.284 0-15-6.716-15-15v-10.803c0-8.284 6.716-15 15-15s15 6.716 15 15v10.803c0 8.284-6.716 15-15 15z" fill="#e6f7ff"/></g><g><path d="m83.63 432.923c-8.284 0-15-6.716-15-15v-10.803c0-8.284 6.716-15 15-15s15 6.716 15 15v10.803c0 8.284-6.716 15-15 15z" fill="#e6f7ff"/></g></g><g><g><path d="m428.335 358.59c-8.284 0-15-6.716-15-15v-10.803c0-8.284 6.716-15 15-15s15 6.716 15 15v10.803c0 8.284-6.716 15-15 15z" fill="#cce6ff"/></g><g><path d="m428.335 432.923c-8.284 0-15-6.716-15-15v-10.803c0-8.284 6.716-15 15-15s15 6.716 15 15v10.803c0 8.284-6.716 15-15 15z" fill="#cce6ff"/></g></g></g></svg>